<svg xmlns:inkscape="http://www.inkscape.org/namespaces/inkscape" xmlns:sodipodi="http://sodipodi.sourceforge.net/DTD/sodipodi-0.dtd" xmlns="http://www.w3.org/2000/svg" xmlns:svg="http://www.w3.org/2000/svg" width="210mm" height="297mm" viewBox="0 0 210 297" version="1.1" id="svg5" style="color: white;" inkscape:version="1.3 (0e150ed, 2023-07-21)" sodipodi:docname="Raconteurs d'Angles Logo.svg"><defs id="defs2"/><g inkscape:label="Calque 1" inkscape:groupmode="layer" id="layer1" style="fill:#ffffff;fill-opacity:1"><g aria-label="Les Raconteurs d'angles" id="text914" style="font-size:22.5778px;line-height:1.25;stroke-width:0.264583;fill:#ffffff;fill-opacity:1"><path d="m 8.7404011,69.162719 5.6258639,-5.625863 v 5.28206 15.189832 H 8.7404011 Z m 5.6258639,9.720245 h 7.344876 v 5.125784 h -7.344876 z" style="font-family:Slant;-inkscape-font-specification:Slant;stroke-width:0.366266;fill:#ffffff;fill-opacity:1" id="path4570"/><path d="m 23.211351,72.131918 4.50069,-4.500684 v 4.250654 12.12686 h -4.50069 z m 3.250498,7.782457 h 7.126093 v 4.094373 H 27.712041 Z M 26.21181,73.88219 h 7.376132 v 4.031873 h -5.875901 z m 0.375058,-2.000302 1.125173,-4.250654 h 10.064044 l -4.250652,4.250654 z" style="font-family:Slant;-inkscape-font-specification:Slant;stroke-width:0.366266;fill:#ffffff;fill-opacity:1" id="path4572"/><path d="m 41.089077,73.88219 q 2.375364,0 3.84434,1.406471 1.500229,1.406461 1.500229,3.563043 0,2.062822 -1.468975,3.625563 -1.468975,1.531481 -3.563047,1.531481 h -3.906849 -2.531639 v -4.094373 l 6.000921,0.03126 q 0.406312,0 0.687606,-0.312529 0.281293,-0.343811 0.281293,-0.781381 0,-0.875141 -1.187683,-0.875141 -2.406619,0 -4.000613,-1.593981 -1.562739,-1.593991 -1.562739,-3.844344 0,-1.969051 1.593994,-3.438027 1.593995,-1.468977 3.65681,-1.468977 h 10.126554 l -4.281907,4.281904 -6.000921,-0.03126 q -0.375056,0 -0.687605,0.218791 -0.281292,0.18752 -0.281292,0.59383 0,0.687611 0.468821,0.937651 0.593841,0.25003 1.312702,0.25003 z" style="font-family:Slant;-inkscape-font-specification:Slant;stroke-width:0.366266;fill:#ffffff;fill-opacity:1" id="path4574"/><path d="m 56.060021,69.162719 5.625865,-5.625863 v 20.471892 h -5.625865 z m 11.064198,-5.625863 q 3.12548,0 4.969513,1.625249 1.844034,1.593996 1.844034,4.813242 0,2.750411 -1.844034,4.594453 -1.812778,1.812782 -4.813238,1.812782 -1.312702,0 -1.312702,-0.250051 l 0.125018,-0.124999 0.343801,-0.15628 -3.344262,-2.562893 2.531638,-0.03126 q 1.250192,0 1.906542,-0.656361 0.656351,-0.65635 0.656351,-1.656501 0,-1.000151 -0.593841,-1.56274 -0.562586,-0.562588 -1.969052,-0.562588 l -3.938104,0.03126 v -5.313315 z m 6.657273,20.628173 -10.876669,-10.87668 h 6.657271 l 4.219398,4.313164 z" style="font-family:Slant;-inkscape-font-specification:Slant;stroke-width:0.366266;fill:#ffffff;fill-opacity:1" id="path4576"/><path d="m 74.75037,78.695434 11.032942,-11.0642 h 3.875596 v 16.377514 h -4.500692 v -2.094061 h -7.094837 l 4.031868,-4.000624 h 3.062969 V 73.569639 L 74.75037,84.008748 Z" style="font-family:Slant;-inkscape-font-specification:Slant;stroke-width:0.366266;fill:#ffffff;fill-opacity:1" id="path4578"/><path d="m 100.6918,79.914375 v 4.094373 h -2.062813 q -3.281753,0 -5.532099,-2.344112 -2.219089,-2.375362 -2.219089,-5.657114 0,-3.469283 2.562892,-5.907155 2.594149,-2.437877 6.250961,-2.437877 l 6.250948,-0.03126 -4.25064,4.250659 h -2.187838 q -1.750268,0 -3.031715,1.218941 -1.281447,1.187671 -1.281447,2.906693 0,1.562731 1.062662,2.750422 1.093918,1.156431 2.625405,1.156431 z" style="font-family:Slant;-inkscape-font-specification:Slant;stroke-width:0.366266;fill:#ffffff;fill-opacity:1" id="path4580"/><path d="m 120.1635,75.757481 q 0,3.906843 -2.53164,6.188445 -2.50038,2.250352 -5.90715,2.250352 -3.46929,0 -5.96967,-2.219092 -2.46913,-2.219091 -2.46913,-6.219705 0,-3.969363 2.50038,-6.188449 2.53164,-2.250346 5.93842,-2.250346 3.50053,0 5.96966,2.219091 2.46913,2.219091 2.46913,6.219704 z m -12.62694,0 q 0,1.906552 1.21893,3.031723 1.25021,1.093911 2.90671,1.093911 1.71901,0 2.90669,-1.062671 1.21894,-1.093911 1.21894,-3.062963 0,-1.906552 -1.25019,-3.000462 -1.21894,-1.125171 -2.87544,-1.125171 -1.71901,0 -2.93796,1.062661 -1.18768,1.06266 -1.18768,3.062972 z" style="font-family:Slant;-inkscape-font-specification:Slant;stroke-width:0.366266;fill:#ffffff;fill-opacity:1" id="path4582"/><path d="m 120.81981,72.131918 4.5007,-4.500684 v 16.377514 h -4.5007 z m 15.12733,11.87683 -10.81416,-10.751649 0.18753,-5.65712 5.84464,5.907161 v -5.907161 h 4.78199 z" style="font-family:Slant;-inkscape-font-specification:Slant;stroke-width:0.366266;fill:#ffffff;fill-opacity:1" id="path4584"/><path d="m 141.60424,71.850628 4.50069,-4.219394 v 4.250654 12.12686 h -4.50069 z m -4.12563,0.03126 4.25065,-4.25065 h 10.06405 l -4.25066,4.25065 z" style="font-family:Slant;-inkscape-font-specification:Slant;stroke-width:0.366266;fill:#ffffff;fill-opacity:1" id="path4586"/><path d="m 148.98037,72.131918 4.50068,-4.500684 v 4.250654 12.12686 h -4.50068 z m 3.25049,7.782457 h 7.12609 v 4.094373 h -5.8759 z m -0.25005,-6.032185 h 7.37614 v 4.031873 h -5.8759 z m 0.37507,-2.000302 1.12517,-4.250654 h 10.06404 l -4.25066,4.250654 z" style="font-family:Slant;-inkscape-font-specification:Slant;stroke-width:0.366266;fill:#ffffff;fill-opacity:1" id="path4588"/><path d="m 173.92167,77.882803 q 0,2.594152 -1.96906,4.500694 -1.93779,1.875291 -4.68821,1.875291 -2.68791,0 -4.62572,-1.875291 -1.90654,-1.875292 -1.90654,-4.500694 v -5.750885 l 4.50069,-4.500684 v 10.282829 q 0,0.843881 0.6251,1.437721 0.65635,0.562591 1.50023,0.562591 0.81263,0 1.46898,-0.562591 0.65634,-0.56258 0.65634,-1.437721 V 67.631234 h 4.43819 v 2.219092 z" style="font-family:Slant;-inkscape-font-specification:Slant;stroke-width:0.366266;fill:#ffffff;fill-opacity:1" id="path4590"/><path d="m 174.98433,72.131918 4.46944,-4.500684 v 16.377514 h -4.46944 z m 8.81384,-4.500684 q 2.46914,0 3.96937,1.312703 1.50023,1.28145 1.50023,3.844342 0,2.187832 -1.46897,3.656803 -1.46898,1.468981 -3.87561,1.468981 h -0.34379 q -0.18754,0 -0.40633,-0.03126 -0.18752,-0.06252 -0.25003,-0.09368 -0.0313,-0.03126 -0.0313,-0.06262 l 0.12501,-0.09368 0.25003,-0.124999 -2.68791,-2.062833 2.03155,-0.03126 q 1.00016,0 1.5315,-0.46881 0.53132,-0.500091 0.53132,-1.375221 0,-0.781361 -0.50008,-1.218931 -0.46881,-0.468821 -1.56274,-0.468821 h -3.15672 v -4.250656 z m 5.34457,16.502534 -8.72008,-8.688837 h 5.34457 l 3.37551,3.438033 z" style="font-family:Slant;-inkscape-font-specification:Slant;stroke-width:0.366266;fill:#ffffff;fill-opacity:1" id="path4592"/><path d="m 196.17506,73.88219 q 2.37537,0 3.84435,1.406471 1.50022,1.406461 1.50022,3.563043 0,2.062822 -1.46897,3.625563 -1.46897,1.531481 -3.56305,1.531481 h -3.90685 -2.53164 v -4.094373 l 6.00092,0.03126 q 0.40631,0 0.6876,-0.312529 0.2813,-0.343811 0.2813,-0.781381 0,-0.875141 -1.18768,-0.875141 -2.40663,0 -4.00061,-1.593981 -1.56274,-1.593991 -1.56274,-3.844344 0,-1.969051 1.59399,-3.438027 1.59399,-1.468977 3.65681,-1.468977 h 10.12655 l -4.28189,4.281904 -6.00093,-0.03126 q -0.37507,0 -0.6876,0.218791 -0.2813,0.18752 -0.2813,0.59383 0,0.687611 0.46882,0.937651 0.59384,0.25003 1.3127,0.25003 z" style="font-family:Slant;-inkscape-font-specification:Slant;stroke-width:0.366266;fill:#ffffff;fill-opacity:1" id="path4594"/><g id="g5022" transform="matrix(1.35698,0.27374104,-0.27374104,1.35698,41.562967,-74.963109)" style="fill:#ffffff;fill-opacity:1"><path d="m 41.608462,121.97586 q 1.210209,0 2.092645,-0.93287 0.907651,-0.93286 0.907651,-2.21871 0,-1.36147 -1.0085,-2.34476 -0.983285,-0.98329 -2.395192,-0.98329 l -1.764883,0.0252 0.02524,-3.45412 1.487541,0.0252 q 2.899448,0 5.017297,1.96658 2.11786,1.94137 2.11786,4.76517 0,2.67253 -1.790099,4.56347 -1.790087,1.89095 -4.487826,1.89095 h -1.689249 v -3.27764 z m -5.773669,-6.27794 3.60539,-3.6306 v 13.21138 h -3.60539 z" style="font-family:Slant;-inkscape-font-specification:Slant;stroke-width:0.295459;fill:#ffffff;fill-opacity:1" id="path4596"/><path d="m 49.878183,108.84011 h 1.63882 l -0.252128,4.31134 h -1.134564 z" style="font-family:Slant;-inkscape-font-specification:Slant;stroke-width:0.295459;fill:#ffffff;fill-opacity:1" id="path4598"/><path d="m 52.1473,120.99256 8.900029,-8.92524 h 3.126361 v 13.21138 h -3.630605 v -1.68924 h -5.72325 l 3.252413,-3.2272 h 2.470837 v -3.50456 l -8.395785,8.421 z" style="font-family:Slant;-inkscape-font-specification:Slant;stroke-width:0.295459;fill:#ffffff;fill-opacity:1" id="path4600"/><path d="m 65.207371,115.69792 3.630616,-3.6306 v 13.21138 h -3.630616 z m 12.202884,9.58078 -8.723547,-8.67311 0.151279,-4.56349 4.714739,4.76518 v -4.76518 h 3.857529 z" style="font-family:Slant;-inkscape-font-specification:Slant;stroke-width:0.295459;fill:#ffffff;fill-opacity:1" id="path4602"/><path d="m 89.537483,115.49623 h -4.185291 q -1.411896,0 -2.445611,0.98329 -1.033715,0.95807 -1.033715,2.34476 0,1.26063 0.857221,2.21871 0.882436,0.93287 2.11786,0.93287 h 1.462326 v 3.30284 h -1.664034 q -2.64732,0 -4.462623,-1.89094 -1.790087,-1.91616 -1.790087,-4.56348 0,-2.79858 2.193494,-4.76518 2.218698,-1.96657 5.218995,-1.96657 l 7.160372,-0.0252 z m -3.22721,9.78247 v -8.16887 h 3.252413 v 8.16887 z" style="font-family:Slant;-inkscape-font-specification:Slant;stroke-width:0.295459;fill:#ffffff;fill-opacity:1" id="path4604"/><path d="m 90.394681,115.69792 3.630616,-3.6306 v 3.42891 9.78247 h -3.630616 z m 3.630616,6.27794 h 4.739958 v 3.30284 h -4.739958 z" style="font-family:Slant;-inkscape-font-specification:Slant;stroke-width:0.295459;fill:#ffffff;fill-opacity:1" id="path4606"/><path d="m 99.723302,115.69792 3.630618,-3.6306 v 3.42891 9.78247 h -3.630618 z m 2.622108,6.27794 h 5.74847 v 3.30284 h -4.73996 z m -0.2017,-4.86603 h 5.95017 v 3.25243 h -4.73996 z m 0.30256,-1.6136 0.90765,-3.42891 h 8.11844 l -3.4289,3.42891 z" style="font-family:Slant;-inkscape-font-specification:Slant;stroke-width:0.295459;fill:#ffffff;fill-opacity:1" id="path4608"/><path d="m 114.14488,117.10983 q 1.91616,0 3.10114,1.13457 1.21021,1.13456 1.21021,2.87423 0,1.66403 -1.18499,2.92466 -1.18499,1.23541 -2.87423,1.23541 h -3.15157 -2.04221 v -3.30284 l 4.8408,0.0252 q 0.32776,0 0.55467,-0.25212 0.22693,-0.27734 0.22693,-0.63032 0,-0.70595 -0.95808,-0.70595 -1.94137,0 -3.22721,-1.28583 -1.26063,-1.28585 -1.26063,-3.10115 0,-1.5884 1.28584,-2.77338 1.28584,-1.185 2.94987,-1.185 h 8.16887 l -3.45412,3.45412 -4.84082,-0.0252 q -0.30254,0 -0.55467,0.17648 -0.22691,0.15127 -0.22691,0.47904 0,0.55468 0.37819,0.75638 0.47904,0.2017 1.05892,0.2017 z" style="font-family:Slant;-inkscape-font-specification:Slant;stroke-width:0.295459;fill:#ffffff;fill-opacity:1" id="path4610"/></g></g></g></svg>