<svg xmlns="http://www.w3.org/2000/svg" width="138" height="42" fill="none"><g clip-path="url(#clip0)"><path d="M61.109 8.07c-.55.183-1.651.367-4.771.367h-2.936l-3.67 4.035h6.79c3.67 0 4.77.183 5.138.366.183 0 .55.367.55 1.651 0 .917-.55 1.467-.917 1.834-.367.183-1.285.55-4.038.55h-8.992c.367-4.035.918-8.07 1.468-12.104h8.625c2.753 0 4.038.183 3.854 1.283-.183.55-.183 1.651-1.101 2.018zm8.809-2.935c0-1.834-.735-2.934-2.02-3.851-1.467-.734-4.22-1.1-8.257-1.1H42.207l-.917 8.07h-4.037l-3.854 4.034h7.524l-.918 8.804H58.54c3.854 0 6.606-.55 8.258-1.284 2.019-1.1 3.12-3.118 3.12-5.502 0-2.018-1.469-3.485-3.304-4.219 2.203-.733 3.304-2.567 3.304-4.952zM138 .183h-9.359l-7.34 6.603-5.873-6.603h-9.359l9.543 10.271-12.846 10.638h9.543l8.074-6.97 6.606 6.97h9.543l-10.46-10.638L138 .184zM97.077 10.454c-.367 4.035-1.1 4.952-1.651 5.502-.368.367-1.836.917-6.974.917-5.322 0-6.606-.366-7.157-.733-.183-.184-.917-.917-.55-4.585.55-4.952 1.284-5.87 1.651-6.236.367-.367 1.835-.917 7.34-.917 5.506 0 6.79.55 6.974.733.55.367.918 1.1.367 5.32zm5.872-8.62C101.114.55 97.261 0 90.838 0 83.68 0 79.093.55 77.075 1.834c-2.02 1.284-3.487 3.301-4.038 9.354-.367 4.401.367 6.97 2.202 8.253 1.835 1.284 5.873 1.834 12.296 1.834 6.973 0 11.56-.55 13.579-1.834 2.202-1.284 3.487-4.218 4.038-8.987.55-4.402-.367-7.153-2.203-8.62zM22.572 15.59c-.55.55-2.019 1.101-5.689 1.101H8.258c.183-1.1 1.285-11.188 1.285-12.105h9.175c3.67 0 4.955.55 5.138.917 1.835 1.65.184 8.987-1.284 10.087zm7.34-13.572C28.077.734 24.774.183 19.636.183H2.386L0 21.092h17.8c5.69 0 9.176-.734 11.195-2.385 1.835-1.467 2.752-2.934 3.67-9.904.183-3.117-.734-5.318-2.753-6.786z" fill="#071D49"/><path d="M74.689 33.38h-1.652v8.437h1.652V33.38zm-40.372-1.65h6.79v-1.468H32.48v11.555h1.652v-4.952h4.404v-1.468h-4.404V31.73h.183zm9.358 5.135c.184-.734.367-1.284.918-1.651.55-.367 1.101-.55 1.652-.55.55 0 1.1.183 1.651.733.367.367.734.917.918 1.651h-5.139v-.183zm0 1.283h6.607v-.55c0-.55-.184-1.284-.367-1.65-.184-.367-.367-1.1-.734-1.468-.367-.366-.734-.733-1.285-.917-.55-.183-1.1-.367-1.651-.367-.55 0-1.101.184-1.652.367-.55.184-.918.55-1.285.917a5.574 5.574 0 00-.917 1.284c-.184.55-.367 1.1-.367 1.65 0 .551.183 1.285.367 1.651.183.55.55.918.918 1.468.367.367.917.733 1.468.917.55.183 1.1.367 1.651.367.55 0 1.285-.184 1.652-.184.55-.183 1.1-.367 1.468-.917l-1.101-1.1c-.184.183-.55.367-.918.55-.367.183-.734.183-1.1.183-.735 0-1.285-.183-1.836-.733-.55-.184-.734-.734-.918-1.468zm10.46-1.283c.184-.734.368-1.284.918-1.651s1.101-.55 1.652-.55c.55 0 1.1.183 1.651.733.367.367.734.917.918 1.651h-5.138v-.183zm0 1.283h6.607v-.55c0-.55-.183-1.284-.367-1.65-.184-.55-.55-.917-.918-1.468-.367-.366-.734-.733-1.284-.917-.55-.183-1.101-.367-1.652-.367-.55 0-1.1.184-1.651.367-.55.184-.918.55-1.285.917a5.574 5.574 0 00-.918 1.284c-.183.55-.367 1.1-.367 1.65 0 .551.184 1.285.367 1.651.184.367.551.918.918 1.468.367.367.918.733 1.468.917.55.183 1.101.367 1.652.367.55 0 1.284-.184 1.651-.184.55-.183 1.101-.367 1.468-.917l-1.1-1.1c-.184.183-.551.367-.918.55-.367.183-.734.183-1.101.183-.734 0-1.285-.183-1.835-.733-.367-.184-.734-.734-.734-1.468zm9.176 3.669h1.652V29.895l-1.652.367v11.555zm11.194-10.088c.184-.183.367-.367.367-.733 0-.184-.183-.55-.367-.734-.183-.183-.367-.367-.734-.367s-.55.184-.734.367c-.183.183-.367.367-.367.734 0 .366.184.55.367.733.184.184.367.367.734.367s.55-.183.734-.367zm5.69 3.118h2.568V33.38h-2.569v-2.568l-1.651.367v2.2h-1.836v1.468h1.836v6.97h1.651v-6.97zm18.9 6.97h1.652V29.895l-1.651.367v11.555zm6.24 0V29.895l-1.652.367v11.555h1.652z" fill="#EA7F37"/><path d="M94.508 33.38v.733l-1.1-.55c-.551-.183-1.102-.367-1.653-.367-.55 0-1.1.184-1.651.367-.55.184-.918.55-1.468.917a3.993 3.993 0 00-.918 1.468c-.183.55-.367 1.1-.367 1.65 0 .55.184 1.284.367 1.65.184.551.55.918.918 1.468.367.367.917.734 1.468.917.55.184 1.101.367 1.651.367.551 0 1.102-.183 1.652-.367l1.101-.55v.734h1.652V33.38h-1.652zm-.734 6.236c-.55.55-1.101.917-2.019.917-.733 0-1.468-.367-2.018-.917-.55-.55-.734-1.284-.734-2.018 0-.733.183-1.467.734-2.017.55-.55 1.1-.917 2.019-.917.734 0 1.468.367 2.018.917.55.55.734 1.284.734 2.017 0 .734-.183 1.468-.734 2.018z" fill="#EA7F37"/></g><defs><clipPath id="clip0"><path fill="#EA7F37" d="M0 0h138v42H0z"/></clipPath></defs></svg>