<!-- Generator: Adobe Illustrator 27.4.1, SVG Export Plug-In . SVG Version: 6.00 Build 0) --><svg xmlns:inkscape="http://www.inkscape.org/namespaces/inkscape" xmlns:sodipodi="http://sodipodi.sourceforge.net/DTD/sodipodi-0.dtd" xmlns="http://www.w3.org/2000/svg" xmlns:svg="http://www.w3.org/2000/svg" version="1.1" id="Calque_1" x="0px" y="0px" viewBox="0 0 400.00001 400.00001" xml:space="preserve" sodipodi:docname="Sceau_PIAC_KCYMK.svg" width="400" height="400" inkscape:version="1.1.1 (3bf5ae0d25, 2021-09-20)"><defs id="defs61"/><style type="text/css" id="style2">.st0{fill:#62B3E5;}	.st1{fill:#E5241B;}	.st2{fill:#9D3089;}	.st3{fill:#5A9A34;}	.st4{fill:#FAB636;}</style><g id="g36" transform="translate(-53.5,-49.9)"><path d="m 92.2,191.2 26,24.4 3.9,-9.7 -4.3,-3.8 4.1,-10.2 5.7,0.4 4.1,-10.3 -35.7,-0.4 z m 23.4,0.4 -2.6,6.5 -8.4,-7.2 z" id="path4"/><path d="m 127.4,158.8 c 0.7,-1 2.1,-2.4 5.3,-3.2 l -7.4,-5.1 c -0.3,0.5 -1.6,2.3 -2.3,4.3 l 2.3,6 -4.4,-3 -5.2,7.6 19.1,13.2 5.2,-7.6 -13.6,-9.4 c 0.1,-0.7 0.1,-1.6 1,-2.8 z" id="path6"/><path d="m 153.4,146.3 c -2.7,2.8 -4.9,0.9 -6.1,-0.3 l -4.7,-4.4 3.8,-4 -4.6,-4.4 -3.8,4 -4.9,-4.7 -4.1,8.4 2.9,2.8 -0.5,0.5 2.5,6.6 2.6,-2.7 7.2,6.8 c 1.5,1.5 5.7,4.8 10.7,-0.4 1.5,-1.5 2,-2.5 2.5,-3.4 l -1.6,-7.5 c -0.9,1.5 -1.4,2.1 -1.9,2.7 z" id="path8"/><path d="m 165.6,126.6 -2.8,0.8 c -1.6,0.5 -2.5,0.5 -3.1,-0.3 -0.5,-0.6 -0.6,-1.9 0.8,-2.9 2.5,-1.9 5.5,-1.6 6.4,-1.4 l -4,-5.3 c -1.5,0.3 -4.3,1.1 -7.3,3.4 -6.2,4.7 -4.6,9.8 -3.1,11.8 2,2.6 4.8,2.9 7.5,2 l 2.4,-0.8 c 0.9,-0.3 2.5,-0.8 3.2,0.2 0.6,0.8 0.3,2.2 -0.9,3.1 -2.4,1.8 -6.4,1.9 -6.9,2 l 4.1,5.3 c 2.9,-0.5 5.7,-2.1 8.1,-3.8 1,-0.7 4.7,-3.6 4.6,-7.9 0,-2 -0.9,-3.5 -1.4,-4.1 -2.3,-2.8 -5.4,-2.7 -7.6,-2.1 z" id="path10"/><path d="m 201.9,111.2 15.4,-5.4 -0.3,-0.8 c -3.3,-9.6 -10.6,-10.2 -16.4,-8.1 -10.2,3.5 -10.2,11.2 -8.5,15.9 1.1,3.3 2.9,4.9 4.1,5.8 5,3.7 11.2,1.7 13.1,1.1 1.5,-0.5 3.8,-1.3 6.8,-3.2 l 1.4,-7.6 c -1.7,1.6 -4.4,3.3 -7,4.2 -4.7,1.7 -7.1,0.1 -8.6,-1.9 z m 0.7,-9.6 c 1.6,-0.5 3.2,-0.1 4.3,1.2 0.5,0.7 0.8,1.4 0.9,1.6 l -7.6,2.7 c -0.8,-3.5 0.9,-5 2.4,-5.5 z" id="path12"/><path d="m 233.8,102.7 -1,-6.4 5.4,-0.8 -1,-6.3 -5.4,0.8 -1,-6.7 -8.4,4.1 0.6,4 -0.7,0.1 -2.1,6.8 3.7,-0.6 1.5,9.8 c 0.3,2.1 1.6,7.3 8.6,6.2 2.1,-0.3 3.2,-0.8 4,-1.1 l 3.4,-6.9 c -1.5,0.6 -2.2,0.9 -3.1,1 -3.8,0.6 -4.3,-2.3 -4.5,-4 z" id="path14"/><path d="m 264.3,100.1 c -1,7.1 3.4,12.9 10.9,13.9 2.4,0.3 4.4,0.1 5.4,0 l 4.5,-5.8 c -0.9,0.2 -3.2,0.7 -5.6,0.4 -4.8,-0.7 -6.1,-4.4 -5.7,-7.2 0.5,-3.3 3.1,-5.5 6.5,-5 2.6,0.4 4.3,2.1 5.1,3.2 l 1,-7.2 c -2.8,-1.7 -5.7,-2.2 -6.9,-2.4 -9.5,-1.3 -14.4,4.3 -15.2,10.1 z" id="path16"/><path d="m 311.2,99.1 -5.3,14.9 c -0.6,0.1 -2.2,0.7 -3.8,0.1 -0.9,-0.3 -2.8,-1.3 -1.6,-4.6 l 4.5,-12.6 -8.5,-3 -5.4,15 c -2.6,7.2 3.3,9.5 4.5,9.9 1.4,0.5 2.4,0.6 3.8,0.7 l 5.9,-4.1 -2,5.6 8.4,3 7.8,-21.9 z" id="path18"/><rect x="313.29999" y="110.6" transform="matrix(0.4916,-0.8708,0.8708,0.4916,67.4016,345.8446)" width="33.200001" height="9.1999998" id="rect20"/><path d="m 349.5,128 4.3,3.3 3.9,-5.1 -4.3,-3.3 4.1,-5.4 -8.8,-3.2 -2.4,3.2 -0.5,-0.4 -6.3,3.3 3,2.2 -6,7.9 c -1.3,1.7 -4.1,6.2 1.6,10.6 1.7,1.3 2.8,1.7 3.6,2.1 l 7.3,-2.4 c -1.5,-0.7 -2.2,-1 -2.9,-1.5 -3.1,-2.4 -1.4,-4.8 -0.4,-6.1 z" id="path22"/><path d="m 375.8,144.2 -11.7,10.6 c -0.6,-0.2 -2.2,-0.4 -3.4,-1.7 -0.6,-0.7 -1.8,-2.5 0.8,-4.8 l 9.9,-9 -6.1,-6.7 -11.8,10.7 c -5.6,5.1 -1.6,9.9 -0.7,10.9 1,1.1 1.8,1.7 3,2.4 l 7.1,-0.8 -4.4,4 6,6.6 17.2,-15.6 z" id="path24"/><path d="m 389.3,173.3 c 0.6,1 1.3,2.9 0.8,6.1 l 7.7,-4.7 c -0.3,-0.5 -1.4,-2.4 -3,-3.8 l -6.4,-0.3 4.5,-2.8 -4.8,-7.9 -19.9,12 4.8,7.9 14.1,-8.5 c 0.6,0.3 1.4,0.8 2.2,2 z" id="path26"/><path d="m 390.2,186.5 c -3.3,1.2 -4.9,3 -5.7,4.2 -3.6,5.1 -1.5,11.2 -0.8,13.1 0.6,1.5 1.4,3.7 3.3,6.8 l 7.6,1.3 c -1.7,-1.6 -3.4,-4.4 -4.4,-6.9 -1.8,-4.8 -0.3,-7.2 1.7,-8.7 l 5.7,15.3 0.8,-0.3 c 9.5,-3.5 10,-10.7 7.8,-16.5 -3.6,-10.1 -11.3,-10 -16,-8.3 z m 10.3,14.5 c -0.7,0.5 -1.4,0.8 -1.6,0.9 l -2.8,-7.6 c 3.4,-0.8 5,0.9 5.5,2.3 0.6,1.6 0.2,3.3 -1.1,4.4 z" id="path28"/><polygon points="252.6,407.2 262.4,407 257.3,393.7 " id="polygon30"/><path d="m 211.9,385.3 -3.7,-1.1 -4.1,13.1 3.6,-2.7 0.9,0.3 c 1.2,0.4 6,1.3 7.4,-3.2 1.1,-3.5 -1.1,-5.5 -4.1,-6.4 z" id="path32"/><path d="m 253.5,69.9 c -99.4,0 -180,80.6 -180,180 0,32.8 8.8,63.5 24.1,90 31.1,53.8 89.2,90 155.9,90 66.6,0 124.7,-36.2 155.9,-90 15.3,-26.5 24.1,-57.2 24.1,-90 0,-99.4 -80.6,-180 -180,-180 z m -31.6,323.5 c -0.4,1.3 -2.1,4.8 -6.2,6 -3.1,0.8 -6.2,0.2 -9.1,-0.7 l -2.6,-0.8 -3.9,12.5 -5.7,-1.8 9.4,-30.3 10.4,3.2 c 2.5,0.8 6.5,2.3 7.7,6.9 0.7,2.2 0.3,4.1 0,5 z m 10.2,24.2 -5.9,-0.9 4.6,-31.4 5.9,0.9 z m 34.9,1.1 -3.1,-7.8 -12.6,0.3 -2.8,7.9 -5.9,0.1 12,-32.1 5.8,-0.1 13.2,31.4 z m 40.6,-8.2 c -1.2,0.7 -3.4,1.8 -6.7,2.7 -1.9,0.5 -7.7,1.9 -13.4,-0.7 -4.4,-2 -7.4,-6 -8.6,-10.6 -0.4,-1.7 -1.3,-6.1 0.6,-10.7 1.3,-3.1 4.6,-8.1 12.7,-10.2 1.2,-0.3 5.2,-1.3 9,-0.8 l 1.4,5.3 c -2,-0.6 -4.5,-1.5 -8.8,-0.4 -6.8,1.8 -10.9,7.8 -9,14.9 1.8,6.9 8,10.8 16.2,8.7 1.8,-0.5 4.6,-1.5 8.2,-3.8 z m -54.1,-33.3 c -47.1,0 -88.2,-25.6 -110.2,-63.7 -10.8,-18.7 -17.1,-40.5 -17.1,-63.6 0,-70.3 57,-127.3 127.3,-127.3 70.3,0 127.3,57 127.3,127.3 0,23.2 -6.2,44.9 -17.1,63.6 -22,38.1 -63.1,63.7 -110.2,63.7 z m 154.4,-42.6 -39,-22.5 c 10.3,-19.1 15.7,-40.5 15.7,-62.2 0,-72.3 -58.8,-131.1 -131.1,-131.1 -72.3,0 -131.1,58.8 -131.1,131.1 0,21.7 5.4,43.2 15.7,62.2 l -39,22.5 C 84.9,308.7 77.4,279.5 77.4,249.9 c 0,-97.1 79,-176.2 176.2,-176.2 97.2,0 176.2,79 176.2,176.2 -0.2,29.6 -7.7,58.9 -21.9,84.7 z" id="path34"/></g><g id="g56" transform="translate(-53.5,-49.9)"><polygon class="st0" points="234.7,221.5 234.7,211 245.8,211 245.8,200.5 219.3,200.5 219.3,221.5 " id="polygon38"/><polygon class="st1" points="192.8,190 192.8,233.3 208.2,233.3 208.2,221.5 219.3,221.5 219.3,200.5 219.3,190 " id="polygon40"/><path class="st2" d="m 181.7,325.1 v -91.9 h 11.1 V 190 179.5 h -26.5 v 126.9 c 4.4,6.9 9.6,13.2 15.4,18.7 z" id="path42"/><path class="st3" d="m 219.3,221.5 h -11.1 v 11.7 110.7 c 3.6,1.8 7.3,3.4 11.1,4.7 5,1.8 10.1,3.2 15.4,4.2 V 221.5 Z" id="path44"/><path class="st4" d="m 192.8,233.3 h -11.1 v 91.9 c 3.5,3.4 7.2,6.5 11.1,9.4 4.9,3.6 10,6.7 15.4,9.4 V 233.3 Z" id="path46"/><path class="st1" d="m 245.8,211 h -11.1 v 10.5 131.3 c 3.6,0.7 7.3,1.2 11.1,1.4 2.5,0.2 5,0.3 7.6,0.3 2.6,0 5.2,-0.1 7.8,-0.3 V 211 Z" id="path48"/><path class="st2" d="m 287.7,348.6 v -148 H 261.2 V 211 354.2 c 9.2,-0.7 18.1,-2.6 26.5,-5.6 z" id="path50"/><path class="st0" d="M 314.2,334.4 V 190 h -26.5 v 10.5 148 c 9.5,-3.4 18.4,-8.2 26.5,-14.1 z" id="path52"/><path class="st3" d="M 340.7,306.2 V 179.6 H 314.2 V 190 334.3 c 10.3,-7.6 19.3,-17.2 26.5,-28.1 z" id="path54"/></g></svg>