<!-- Generator: Adobe Illustrator 27.4.1, SVG Export Plug-In . SVG Version: 6.00 Build 0) --><svg xmlns="http://www.w3.org/2000/svg" xmlns:xlink="http://www.w3.org/1999/xlink" version="1.1" id="Calque_1" x="0px" y="0px" viewBox="0 0 506.8 499.8" style="enable-background:new 0 0 506.8 499.8;" xml:space="preserve"><style type="text/css">.st0{fill:#62B3E5;}	.st1{fill:#E5241B;}	.st2{fill:#9D3089;}	.st3{fill:#5A9A34;}	.st4{fill:#FAB636;}</style><g><path d="M92.2,191.2l26,24.4l3.9-9.7l-4.3-3.8l4.1-10.2l5.7,0.4l4.1-10.3L96,181.6L92.2,191.2z M115.6,191.6l-2.6,6.5l-8.4-7.2 L115.6,191.6z"/><path d="M127.4,158.8c0.7-1,2.1-2.4,5.3-3.2l-7.4-5.1c-0.3,0.5-1.6,2.3-2.3,4.3l2.3,6l-4.4-3l-5.2,7.6l19.1,13.2l5.2-7.6l-13.6-9.4 C126.5,160.9,126.5,160,127.4,158.8z"/><path d="M153.4,146.3c-2.7,2.8-4.9,0.9-6.1-0.3l-4.7-4.4l3.8-4l-4.6-4.4l-3.8,4l-4.9-4.7l-4.1,8.4l2.9,2.8l-0.5,0.5l2.5,6.6 l2.6-2.7l7.2,6.8c1.5,1.5,5.7,4.8,10.7-0.4c1.5-1.5,2-2.5,2.5-3.4l-1.6-7.5C154.4,145.1,153.9,145.7,153.4,146.3z"/><path d="M165.6,126.6l-2.8,0.8c-1.6,0.5-2.5,0.5-3.1-0.3c-0.5-0.6-0.6-1.9,0.8-2.9c2.5-1.9,5.5-1.6,6.4-1.4l-4-5.3 c-1.5,0.3-4.3,1.1-7.3,3.4c-6.2,4.7-4.6,9.8-3.1,11.8c2,2.6,4.8,2.9,7.5,2l2.4-0.8c0.9-0.3,2.5-0.8,3.2,0.2 c0.6,0.8,0.3,2.2-0.9,3.1c-2.4,1.8-6.4,1.9-6.9,2l4.1,5.3c2.9-0.5,5.7-2.1,8.1-3.8c1-0.7,4.7-3.6,4.6-7.9c0-2-0.9-3.5-1.4-4.1 C170.9,125.9,167.8,126,165.6,126.6z"/><path d="M201.9,111.2l15.4-5.4l-0.3-0.8c-3.3-9.6-10.6-10.2-16.4-8.1c-10.2,3.5-10.2,11.2-8.5,15.9c1.1,3.3,2.9,4.9,4.1,5.8 c5,3.7,11.2,1.7,13.1,1.1c1.5-0.5,3.8-1.3,6.8-3.2l1.4-7.6c-1.7,1.6-4.4,3.3-7,4.2C205.8,114.8,203.4,113.2,201.9,111.2z M202.6,101.6c1.6-0.5,3.2-0.1,4.3,1.2c0.5,0.7,0.8,1.4,0.9,1.6l-7.6,2.7C199.4,103.6,201.1,102.1,202.6,101.6z"/><path d="M233.8,102.7l-1-6.4l5.4-0.8l-1-6.3l-5.4,0.8l-1-6.7l-8.4,4.1l0.6,4l-0.7,0.1l-2.1,6.8l3.7-0.6l1.5,9.8 c0.3,2.1,1.6,7.3,8.6,6.2c2.1-0.3,3.2-0.8,4-1.1l3.4-6.9c-1.5,0.6-2.2,0.9-3.1,1C234.5,107.3,234,104.4,233.8,102.7z"/><path d="M264.3,100.1c-1,7.1,3.4,12.9,10.9,13.9c2.4,0.3,4.4,0.1,5.4,0l4.5-5.8c-0.9,0.2-3.2,0.7-5.6,0.4c-4.8-0.7-6.1-4.4-5.7-7.2 c0.5-3.3,3.1-5.5,6.5-5c2.6,0.4,4.3,2.1,5.1,3.2l1-7.2c-2.8-1.7-5.7-2.2-6.9-2.4C270,88.7,265.1,94.3,264.3,100.1z"/><path d="M311.2,99.1l-5.3,14.9c-0.6,0.1-2.2,0.7-3.8,0.1c-0.9-0.3-2.8-1.3-1.6-4.6l4.5-12.6l-8.5-3l-5.4,15 c-2.6,7.2,3.3,9.5,4.5,9.9c1.4,0.5,2.4,0.6,3.8,0.7l5.9-4.1l-2,5.6l8.4,3l7.8-21.9L311.2,99.1z"/><rect x="313.3" y="110.6" transform="matrix(0.4916 -0.8708 0.8708 0.4916 67.4016 345.8446)" width="33.2" height="9.2"/><path d="M349.5,128l4.3,3.3l3.9-5.1l-4.3-3.3l4.1-5.4l-8.8-3.2l-2.4,3.2l-0.5-0.4l-6.3,3.3l3,2.2l-6,7.9c-1.3,1.7-4.1,6.2,1.6,10.6 c1.7,1.3,2.8,1.7,3.6,2.1l7.3-2.4c-1.5-0.7-2.2-1-2.9-1.5c-3.1-2.4-1.4-4.8-0.4-6.1L349.5,128z"/><path d="M375.8,144.2l-11.7,10.6c-0.6-0.2-2.2-0.4-3.4-1.7c-0.6-0.7-1.8-2.5,0.8-4.8l9.9-9l-6.1-6.7l-11.8,10.7 c-5.6,5.1-1.6,9.9-0.7,10.9c1,1.1,1.8,1.7,3,2.4l7.1-0.8l-4.4,4l6,6.6l17.2-15.6L375.8,144.2z"/><path d="M389.3,173.3c0.6,1,1.3,2.9,0.8,6.1l7.7-4.7c-0.3-0.5-1.4-2.4-3-3.8l-6.4-0.3l4.5-2.8l-4.8-7.9l-19.9,12l4.8,7.9l14.1-8.5 C387.7,171.6,388.5,172.1,389.3,173.3z"/><path d="M390.2,186.5c-3.3,1.2-4.9,3-5.7,4.2c-3.6,5.1-1.5,11.2-0.8,13.1c0.6,1.5,1.4,3.7,3.3,6.8l7.6,1.3 c-1.7-1.6-3.4-4.4-4.4-6.9c-1.8-4.8-0.3-7.2,1.7-8.7l5.7,15.3l0.8-0.3c9.5-3.5,10-10.7,7.8-16.5 C402.6,184.7,394.9,184.8,390.2,186.5z M400.5,201c-0.7,0.5-1.4,0.8-1.6,0.9l-2.8-7.6c3.4-0.8,5,0.9,5.5,2.3 C402.2,198.2,401.8,199.9,400.5,201z"/><polygon points="252.6,407.2 262.4,407 257.3,393.7 "/><path d="M211.9,385.3l-3.7-1.1l-4.1,13.1l3.6-2.7l0.9,0.3c1.2,0.4,6,1.3,7.4-3.2C217.1,388.2,214.9,386.2,211.9,385.3z"/><path d="M253.5,69.9c-99.4,0-180,80.6-180,180c0,32.8,8.8,63.5,24.1,90c31.1,53.8,89.2,90,155.9,90c66.6,0,124.7-36.2,155.9-90 c15.3-26.5,24.1-57.2,24.1-90C433.5,150.5,352.9,69.9,253.5,69.9z M221.9,393.4c-0.4,1.3-2.1,4.8-6.2,6c-3.1,0.8-6.2,0.2-9.1-0.7 l-2.6-0.8l-3.9,12.5l-5.7-1.8l9.4-30.3l10.4,3.2c2.5,0.8,6.5,2.3,7.7,6.9C222.6,390.6,222.2,392.5,221.9,393.4z M232.1,417.6 l-5.9-0.9l4.6-31.4l5.9,0.9L232.1,417.6z M267,418.7l-3.1-7.8l-12.6,0.3l-2.8,7.9l-5.9,0.1l12-32.1l5.8-0.1l13.2,31.4L267,418.7z M307.6,410.5c-1.2,0.7-3.4,1.8-6.7,2.7c-1.9,0.5-7.7,1.9-13.4-0.7c-4.4-2-7.4-6-8.6-10.6c-0.4-1.7-1.3-6.1,0.6-10.7 c1.3-3.1,4.6-8.1,12.7-10.2c1.2-0.3,5.2-1.3,9-0.8l1.4,5.3c-2-0.6-4.5-1.5-8.8-0.4c-6.8,1.8-10.9,7.8-9,14.9 c1.8,6.9,8,10.8,16.2,8.7c1.8-0.5,4.6-1.5,8.2-3.8L307.6,410.5z M253.5,377.2c-47.1,0-88.2-25.6-110.2-63.7 c-10.8-18.7-17.1-40.5-17.1-63.6c0-70.3,57-127.3,127.3-127.3c70.3,0,127.3,57,127.3,127.3c0,23.2-6.2,44.9-17.1,63.6 C341.7,351.6,300.6,377.2,253.5,377.2z M407.9,334.6l-39-22.5c10.3-19.1,15.7-40.5,15.7-62.2c0-72.3-58.8-131.1-131.1-131.1 s-131.1,58.8-131.1,131.1c0,21.7,5.4,43.2,15.7,62.2l-39,22.5c-14.2-25.9-21.7-55.1-21.7-84.7c0-97.1,79-176.2,176.2-176.2 s176.2,79,176.2,176.2C429.6,279.5,422.1,308.8,407.9,334.6z"/></g><g><polygon class="st0" points="234.7,221.5 234.7,211 245.8,211 245.8,200.5 219.3,200.5 219.3,221.5 "/><polygon class="st1" points="208.2,233.3 208.2,221.5 219.3,221.5 219.3,200.5 219.3,190 192.8,190 192.8,233.3 "/><path class="st2" d="M181.7,325.1v-91.9h11.1V190v-10.5h-26.5v126.9C170.7,313.3,175.9,319.6,181.7,325.1z"/><path class="st3" d="M219.3,221.5h-11.1v11.7v110.7c3.6,1.8,7.3,3.4,11.1,4.7c5,1.8,10.1,3.2,15.4,4.2V221.5H219.3z"/><path class="st4" d="M192.8,233.3h-11.1v91.9c3.5,3.4,7.2,6.5,11.1,9.4c4.9,3.6,10,6.7,15.4,9.4V233.3H192.8z"/><path class="st1" d="M245.8,211h-11.1v10.5v131.3c3.6,0.7,7.3,1.2,11.1,1.4c2.5,0.2,5,0.3,7.6,0.3c2.6,0,5.2-0.1,7.8-0.3V211H245.8 z"/><path class="st2" d="M287.7,348.6v-148h-26.5V211v143.2C270.4,353.5,279.3,351.6,287.7,348.6z"/><path class="st0" d="M314.2,334.4V190h-26.5v10.5v148C297.2,345.1,306.1,340.3,314.2,334.4z"/><path class="st3" d="M340.7,306.2V179.6h-26.5V190v144.3C324.5,326.7,333.5,317.1,340.7,306.2z"/></g></svg>